<mxfile host="65bd71144e">
    <diagram id="w_OSGj2PyRHIl4y4Mj7E" name="Vig">
        <mxGraphModel dx="1111" dy="879" grid="1" gridSize="10" guides="1" tooltips="1" connect="1" arrows="1" fold="1" page="1" pageScale="1" pageWidth="850" pageHeight="1100" math="0" shadow="0">
            <root>
                <mxCell id="0"/>
                <mxCell id="1" parent="0"/>
                <mxCell id="5EDjNVpetQmjrz9iJaq7-1" style="edgeStyle=orthogonalEdgeStyle;html=1;exitX=0.5;exitY=1;exitDx=0;exitDy=0;entryX=0.5;entryY=0;entryDx=0;entryDy=0;" edge="1" parent="1" source="5EDjNVpetQmjrz9iJaq7-2" target="5EDjNVpetQmjrz9iJaq7-7">
                    <mxGeometry relative="1" as="geometry"/>
                </mxCell>
                <mxCell id="5EDjNVpetQmjrz9iJaq7-2" value="Input msg&lt;br&gt;and key" style="shape=parallelogram;perimeter=parallelogramPerimeter;whiteSpace=wrap;html=1;fixedSize=1;" vertex="1" parent="1">
                    <mxGeometry x="250" y="180" width="120" height="60" as="geometry"/>
                </mxCell>
                <mxCell id="5EDjNVpetQmjrz9iJaq7-3" style="edgeStyle=orthogonalEdgeStyle;html=1;exitX=0.5;exitY=1;exitDx=0;exitDy=0;entryX=0.5;entryY=0;entryDx=0;entryDy=0;" edge="1" parent="1" source="5EDjNVpetQmjrz9iJaq7-4" target="5EDjNVpetQmjrz9iJaq7-2">
                    <mxGeometry relative="1" as="geometry"/>
                </mxCell>
                <mxCell id="5EDjNVpetQmjrz9iJaq7-4" value="begin" style="ellipse;whiteSpace=wrap;html=1;" vertex="1" parent="1">
                    <mxGeometry x="250" y="100" width="120" height="40" as="geometry"/>
                </mxCell>
                <mxCell id="5EDjNVpetQmjrz9iJaq7-5" value="yes" style="edgeStyle=orthogonalEdgeStyle;html=1;exitX=1;exitY=0.5;exitDx=0;exitDy=0;entryX=0.5;entryY=0;entryDx=0;entryDy=0;" edge="1" parent="1" source="5EDjNVpetQmjrz9iJaq7-7" target="5EDjNVpetQmjrz9iJaq7-9">
                    <mxGeometry x="-0.6923" y="20" relative="1" as="geometry">
                        <Array as="points">
                            <mxPoint x="470" y="350"/>
                        </Array>
                        <mxPoint as="offset"/>
                    </mxGeometry>
                </mxCell>
                <mxCell id="5EDjNVpetQmjrz9iJaq7-6" value="no" style="edgeStyle=orthogonalEdgeStyle;html=1;exitX=0.5;exitY=1;exitDx=0;exitDy=0;entryX=0.5;entryY=0;entryDx=0;entryDy=0;" edge="1" parent="1" source="5EDjNVpetQmjrz9iJaq7-7" target="5EDjNVpetQmjrz9iJaq7-12">
                    <mxGeometry x="-0.4286" y="20" relative="1" as="geometry">
                        <mxPoint as="offset"/>
                    </mxGeometry>
                </mxCell>
                <mxCell id="5EDjNVpetQmjrz9iJaq7-7" value="For each &lt;br&gt;rune in msg" style="shape=hexagon;perimeter=hexagonPerimeter2;whiteSpace=wrap;html=1;fixedSize=1;" vertex="1" parent="1">
                    <mxGeometry x="250" y="310" width="120" height="80" as="geometry"/>
                </mxCell>
                <mxCell id="5EDjNVpetQmjrz9iJaq7-8" style="edgeStyle=orthogonalEdgeStyle;html=1;exitX=0.5;exitY=1;exitDx=0;exitDy=0;entryX=0.5;entryY=0;entryDx=0;entryDy=0;" edge="1" parent="1" source="5EDjNVpetQmjrz9iJaq7-9" target="5EDjNVpetQmjrz9iJaq7-7">
                    <mxGeometry relative="1" as="geometry">
                        <Array as="points">
                            <mxPoint x="470" y="510"/>
                            <mxPoint x="570" y="510"/>
                            <mxPoint x="570" y="280"/>
                            <mxPoint x="310" y="280"/>
                        </Array>
                    </mxGeometry>
                </mxCell>
                <mxCell id="5EDjNVpetQmjrz9iJaq7-9" value="Get diff of key and rune&lt;br&gt;&lt;br&gt;Shift rune" style="rounded=0;whiteSpace=wrap;html=1;" vertex="1" parent="1">
                    <mxGeometry x="410" y="380" width="120" height="100" as="geometry"/>
                </mxCell>
                <mxCell id="5EDjNVpetQmjrz9iJaq7-10" value="end" style="ellipse;whiteSpace=wrap;html=1;" vertex="1" parent="1">
                    <mxGeometry x="250" y="550" width="120" height="40" as="geometry"/>
                </mxCell>
                <mxCell id="5EDjNVpetQmjrz9iJaq7-11" style="edgeStyle=orthogonalEdgeStyle;html=1;exitX=0.5;exitY=1;exitDx=0;exitDy=0;entryX=0.5;entryY=0;entryDx=0;entryDy=0;" edge="1" parent="1" source="5EDjNVpetQmjrz9iJaq7-12" target="5EDjNVpetQmjrz9iJaq7-10">
                    <mxGeometry relative="1" as="geometry"/>
                </mxCell>
                <mxCell id="5EDjNVpetQmjrz9iJaq7-12" value="Output result" style="shape=parallelogram;perimeter=parallelogramPerimeter;whiteSpace=wrap;html=1;fixedSize=1;" vertex="1" parent="1">
                    <mxGeometry x="250" y="460" width="120" height="40" as="geometry"/>
                </mxCell>
                <mxCell id="5EDjNVpetQmjrz9iJaq7-13" value="Encoder" style="text;html=1;align=center;verticalAlign=middle;resizable=0;points=[];autosize=1;strokeColor=none;fillColor=none;" vertex="1" parent="1">
                    <mxGeometry x="220" y="70" width="70" height="30" as="geometry"/>
                </mxCell>
            </root>
        </mxGraphModel>
    </diagram>
    <diagram id="U7HUwzDxJybyuZrtArn4" name="Decoder">
        <mxGraphModel dx="1111" dy="879" grid="1" gridSize="10" guides="1" tooltips="1" connect="1" arrows="1" fold="1" page="1" pageScale="1" pageWidth="850" pageHeight="1100" math="0" shadow="0">
            <root>
                <mxCell id="0"/>
                <mxCell id="1" parent="0"/>
                <mxCell id="KAbfLOyHMQCHE4iu9jzu-13" style="edgeStyle=orthogonalEdgeStyle;html=1;exitX=0.5;exitY=1;exitDx=0;exitDy=0;entryX=0.5;entryY=0;entryDx=0;entryDy=0;" parent="1" source="KAbfLOyHMQCHE4iu9jzu-2" target="KAbfLOyHMQCHE4iu9jzu-7" edge="1">
                    <mxGeometry relative="1" as="geometry"/>
                </mxCell>
                <mxCell id="KAbfLOyHMQCHE4iu9jzu-2" value="Input msg" style="shape=parallelogram;perimeter=parallelogramPerimeter;whiteSpace=wrap;html=1;fixedSize=1;" parent="1" vertex="1">
                    <mxGeometry x="300" y="150" width="120" height="40" as="geometry"/>
                </mxCell>
                <mxCell id="KAbfLOyHMQCHE4iu9jzu-3" style="edgeStyle=orthogonalEdgeStyle;html=1;exitX=0.5;exitY=1;exitDx=0;exitDy=0;entryX=0.5;entryY=0;entryDx=0;entryDy=0;" parent="1" source="KAbfLOyHMQCHE4iu9jzu-4" target="KAbfLOyHMQCHE4iu9jzu-2" edge="1">
                    <mxGeometry relative="1" as="geometry"/>
                </mxCell>
                <mxCell id="KAbfLOyHMQCHE4iu9jzu-4" value="begin" style="ellipse;whiteSpace=wrap;html=1;" parent="1" vertex="1">
                    <mxGeometry x="300" y="70" width="120" height="40" as="geometry"/>
                </mxCell>
                <mxCell id="KAbfLOyHMQCHE4iu9jzu-15" style="edgeStyle=orthogonalEdgeStyle;html=1;exitX=1;exitY=0.5;exitDx=0;exitDy=0;entryX=0.5;entryY=0;entryDx=0;entryDy=0;" parent="1" source="KAbfLOyHMQCHE4iu9jzu-7" target="KAbfLOyHMQCHE4iu9jzu-14" edge="1">
                    <mxGeometry relative="1" as="geometry"/>
                </mxCell>
                <mxCell id="KAbfLOyHMQCHE4iu9jzu-19" value="Yes" style="edgeLabel;html=1;align=center;verticalAlign=middle;resizable=0;points=[];" parent="KAbfLOyHMQCHE4iu9jzu-15" vertex="1" connectable="0">
                    <mxGeometry x="-0.7333" y="4" relative="1" as="geometry">
                        <mxPoint y="-6" as="offset"/>
                    </mxGeometry>
                </mxCell>
                <mxCell id="KAbfLOyHMQCHE4iu9jzu-21" style="edgeStyle=orthogonalEdgeStyle;html=1;exitX=0.5;exitY=1;exitDx=0;exitDy=0;entryX=0.5;entryY=0;entryDx=0;entryDy=0;" parent="1" source="KAbfLOyHMQCHE4iu9jzu-7" target="KAbfLOyHMQCHE4iu9jzu-20" edge="1">
                    <mxGeometry relative="1" as="geometry"/>
                </mxCell>
                <mxCell id="KAbfLOyHMQCHE4iu9jzu-7" value="for i := 0&lt;br&gt;i &amp;lt; 30&lt;br&gt;i++" style="shape=hexagon;perimeter=hexagonPerimeter2;whiteSpace=wrap;html=1;fixedSize=1;" parent="1" vertex="1">
                    <mxGeometry x="300" y="240" width="120" height="60" as="geometry"/>
                </mxCell>
                <mxCell id="KAbfLOyHMQCHE4iu9jzu-10" value="end" style="ellipse;whiteSpace=wrap;html=1;" parent="1" vertex="1">
                    <mxGeometry x="300" y="540" width="120" height="40" as="geometry"/>
                </mxCell>
                <mxCell id="KAbfLOyHMQCHE4iu9jzu-17" style="edgeStyle=orthogonalEdgeStyle;html=1;exitX=0.5;exitY=1;exitDx=0;exitDy=0;entryX=0.5;entryY=0;entryDx=0;entryDy=0;" parent="1" source="KAbfLOyHMQCHE4iu9jzu-14" target="KAbfLOyHMQCHE4iu9jzu-16" edge="1">
                    <mxGeometry relative="1" as="geometry"/>
                </mxCell>
                <mxCell id="KAbfLOyHMQCHE4iu9jzu-14" value="Encode(msg[0:32], i)" style="shape=process;whiteSpace=wrap;html=1;backgroundOutline=1;" parent="1" vertex="1">
                    <mxGeometry x="450" y="300" width="150" height="40" as="geometry"/>
                </mxCell>
                <mxCell id="KAbfLOyHMQCHE4iu9jzu-18" style="edgeStyle=orthogonalEdgeStyle;html=1;exitX=0.5;exitY=1;exitDx=0;exitDy=0;entryX=0.5;entryY=0;entryDx=0;entryDy=0;" parent="1" source="KAbfLOyHMQCHE4iu9jzu-16" target="KAbfLOyHMQCHE4iu9jzu-7" edge="1">
                    <mxGeometry relative="1" as="geometry">
                        <Array as="points">
                            <mxPoint x="525" y="430"/>
                            <mxPoint x="650" y="430"/>
                            <mxPoint x="650" y="220"/>
                            <mxPoint x="360" y="220"/>
                        </Array>
                    </mxGeometry>
                </mxCell>
                <mxCell id="KAbfLOyHMQCHE4iu9jzu-16" value="Output result" style="shape=parallelogram;perimeter=parallelogramPerimeter;whiteSpace=wrap;html=1;fixedSize=1;" parent="1" vertex="1">
                    <mxGeometry x="465" y="370" width="120" height="30" as="geometry"/>
                </mxCell>
                <mxCell id="KAbfLOyHMQCHE4iu9jzu-23" style="edgeStyle=orthogonalEdgeStyle;html=1;exitX=0.5;exitY=1;exitDx=0;exitDy=0;entryX=0.5;entryY=0;entryDx=0;entryDy=0;" parent="1" source="KAbfLOyHMQCHE4iu9jzu-20" target="KAbfLOyHMQCHE4iu9jzu-22" edge="1">
                    <mxGeometry relative="1" as="geometry"/>
                </mxCell>
                <mxCell id="KAbfLOyHMQCHE4iu9jzu-20" value="Input shift" style="shape=parallelogram;perimeter=parallelogramPerimeter;whiteSpace=wrap;html=1;fixedSize=1;" parent="1" vertex="1">
                    <mxGeometry x="300" y="340" width="120" height="30" as="geometry"/>
                </mxCell>
                <mxCell id="KAbfLOyHMQCHE4iu9jzu-25" style="edgeStyle=orthogonalEdgeStyle;html=1;exitX=0.5;exitY=1;exitDx=0;exitDy=0;entryX=0.5;entryY=0;entryDx=0;entryDy=0;" parent="1" source="KAbfLOyHMQCHE4iu9jzu-22" target="KAbfLOyHMQCHE4iu9jzu-24" edge="1">
                    <mxGeometry relative="1" as="geometry"/>
                </mxCell>
                <mxCell id="KAbfLOyHMQCHE4iu9jzu-22" value="Encode(msg, shift)" style="shape=process;whiteSpace=wrap;html=1;backgroundOutline=1;" parent="1" vertex="1">
                    <mxGeometry x="285" y="410" width="150" height="40" as="geometry"/>
                </mxCell>
                <mxCell id="KAbfLOyHMQCHE4iu9jzu-26" style="edgeStyle=orthogonalEdgeStyle;html=1;exitX=0.5;exitY=1;exitDx=0;exitDy=0;entryX=0.5;entryY=0;entryDx=0;entryDy=0;" parent="1" source="KAbfLOyHMQCHE4iu9jzu-24" target="KAbfLOyHMQCHE4iu9jzu-10" edge="1">
                    <mxGeometry relative="1" as="geometry"/>
                </mxCell>
                <mxCell id="KAbfLOyHMQCHE4iu9jzu-24" value="Output result" style="shape=parallelogram;perimeter=parallelogramPerimeter;whiteSpace=wrap;html=1;fixedSize=1;" parent="1" vertex="1">
                    <mxGeometry x="300" y="480" width="120" height="30" as="geometry"/>
                </mxCell>
                <mxCell id="KAbfLOyHMQCHE4iu9jzu-28" value="Decoder" style="text;html=1;align=center;verticalAlign=middle;resizable=0;points=[];autosize=1;strokeColor=none;fillColor=none;" parent="1" vertex="1">
                    <mxGeometry x="260" y="30" width="70" height="30" as="geometry"/>
                </mxCell>
            </root>
        </mxGraphModel>
    </diagram>
    <diagram id="K7nFjAGMN0Q4uzu9Op1r" name="Encoder">
        <mxGraphModel dx="1111" dy="879" grid="1" gridSize="10" guides="1" tooltips="1" connect="1" arrows="1" fold="1" page="1" pageScale="1" pageWidth="850" pageHeight="1100" math="0" shadow="0">
            <root>
                <mxCell id="0"/>
                <mxCell id="1" parent="0"/>
                <mxCell id="12" style="edgeStyle=orthogonalEdgeStyle;html=1;exitX=0.5;exitY=1;exitDx=0;exitDy=0;entryX=0.5;entryY=0;entryDx=0;entryDy=0;" parent="1" source="2" target="4" edge="1">
                    <mxGeometry relative="1" as="geometry"/>
                </mxCell>
                <mxCell id="2" value="Input msg&lt;br&gt;and shift" style="shape=parallelogram;perimeter=parallelogramPerimeter;whiteSpace=wrap;html=1;fixedSize=1;" parent="1" vertex="1">
                    <mxGeometry x="340" y="120" width="120" height="60" as="geometry"/>
                </mxCell>
                <mxCell id="11" style="edgeStyle=orthogonalEdgeStyle;html=1;exitX=0.5;exitY=1;exitDx=0;exitDy=0;entryX=0.5;entryY=0;entryDx=0;entryDy=0;" parent="1" source="3" target="2" edge="1">
                    <mxGeometry relative="1" as="geometry"/>
                </mxCell>
                <mxCell id="3" value="begin" style="ellipse;whiteSpace=wrap;html=1;" parent="1" vertex="1">
                    <mxGeometry x="340" y="40" width="120" height="40" as="geometry"/>
                </mxCell>
                <mxCell id="9" value="yes" style="edgeStyle=orthogonalEdgeStyle;html=1;exitX=1;exitY=0.5;exitDx=0;exitDy=0;entryX=0.5;entryY=0;entryDx=0;entryDy=0;" parent="1" source="4" target="7" edge="1">
                    <mxGeometry x="-0.6923" y="20" relative="1" as="geometry">
                        <Array as="points">
                            <mxPoint x="560" y="290"/>
                        </Array>
                        <mxPoint as="offset"/>
                    </mxGeometry>
                </mxCell>
                <mxCell id="16" value="no" style="edgeStyle=orthogonalEdgeStyle;html=1;exitX=0.5;exitY=1;exitDx=0;exitDy=0;entryX=0.5;entryY=0;entryDx=0;entryDy=0;" parent="1" source="4" target="15" edge="1">
                    <mxGeometry x="-0.4286" y="20" relative="1" as="geometry">
                        <mxPoint as="offset"/>
                    </mxGeometry>
                </mxCell>
                <mxCell id="4" value="For each &lt;br&gt;rune in msg" style="shape=hexagon;perimeter=hexagonPerimeter2;whiteSpace=wrap;html=1;fixedSize=1;" parent="1" vertex="1">
                    <mxGeometry x="340" y="250" width="120" height="80" as="geometry"/>
                </mxCell>
                <mxCell id="10" style="edgeStyle=orthogonalEdgeStyle;html=1;exitX=0.5;exitY=1;exitDx=0;exitDy=0;entryX=0.5;entryY=0;entryDx=0;entryDy=0;" parent="1" source="7" target="4" edge="1">
                    <mxGeometry relative="1" as="geometry">
                        <Array as="points">
                            <mxPoint x="560" y="420"/>
                            <mxPoint x="660" y="420"/>
                            <mxPoint x="660" y="220"/>
                            <mxPoint x="400" y="220"/>
                        </Array>
                    </mxGeometry>
                </mxCell>
                <mxCell id="7" value="Shift rune" style="rounded=0;whiteSpace=wrap;html=1;" parent="1" vertex="1">
                    <mxGeometry x="500" y="320" width="120" height="60" as="geometry"/>
                </mxCell>
                <mxCell id="8" value="end" style="ellipse;whiteSpace=wrap;html=1;" parent="1" vertex="1">
                    <mxGeometry x="340" y="490" width="120" height="40" as="geometry"/>
                </mxCell>
                <mxCell id="17" style="edgeStyle=orthogonalEdgeStyle;html=1;exitX=0.5;exitY=1;exitDx=0;exitDy=0;entryX=0.5;entryY=0;entryDx=0;entryDy=0;" parent="1" source="15" target="8" edge="1">
                    <mxGeometry relative="1" as="geometry"/>
                </mxCell>
                <mxCell id="15" value="Output result" style="shape=parallelogram;perimeter=parallelogramPerimeter;whiteSpace=wrap;html=1;fixedSize=1;" parent="1" vertex="1">
                    <mxGeometry x="340" y="400" width="120" height="40" as="geometry"/>
                </mxCell>
                <mxCell id="5CAj_kuQFnwYgB6MufeK-17" value="Encoder" style="text;html=1;align=center;verticalAlign=middle;resizable=0;points=[];autosize=1;strokeColor=none;fillColor=none;" parent="1" vertex="1">
                    <mxGeometry x="310" y="10" width="70" height="30" as="geometry"/>
                </mxCell>
            </root>
        </mxGraphModel>
    </diagram>
</mxfile>